<svg xmlns="http://www.w3.org/2000/svg" width="1100" height="560" viewBox="0 0 1100 560" role="img" aria-label="Combined MES strategy research snapshot">
  <rect width="1100" height="560" fill="#0f172a"/>
  <rect x="34" y="34" width="1032" height="492" rx="18" fill="#111827" stroke="#334155" stroke-width="2"/>
  <text x="64" y="84" fill="#e5e7eb" font-family="Segoe UI, Arial, sans-serif" font-size="34" font-weight="700">Combined MES Research Snapshot</text>
  <text x="64" y="120" fill="#94a3b8" font-family="Segoe UI, Arial, sans-serif" font-size="18">Private Python simulation - pullback + opening-range candidates - one-position view</text>

  <g font-family="Segoe UI, Arial, sans-serif">
    <rect x="64" y="158" width="300" height="86" rx="12" fill="#1f2937" stroke="#334155"/>
    <text x="88" y="190" fill="#94a3b8" font-size="16">Net PnL Snapshot</text>
    <text x="88" y="224" fill="#22c55e" font-size="30" font-weight="700">+$114,173.14</text>

    <rect x="400" y="158" width="300" height="86" rx="12" fill="#1f2937" stroke="#334155"/>
    <text x="424" y="190" fill="#94a3b8" font-size="16">Win Rate</text>
    <text x="424" y="224" fill="#38bdf8" font-size="30" font-weight="700">61.48%</text>

    <rect x="736" y="158" width="300" height="86" rx="12" fill="#1f2937" stroke="#334155"/>
    <text x="760" y="190" fill="#94a3b8" font-size="16">Profit Factor</text>
    <text x="760" y="224" fill="#facc15" font-size="30" font-weight="700">2.53</text>

    <rect x="64" y="274" width="300" height="86" rx="12" fill="#1f2937" stroke="#334155"/>
    <text x="88" y="306" fill="#94a3b8" font-size="16">Accepted Positions</text>
    <text x="88" y="340" fill="#e5e7eb" font-size="30" font-weight="700">244</text>

    <rect x="400" y="274" width="300" height="86" rx="12" fill="#1f2937" stroke="#334155"/>
    <text x="424" y="306" fill="#94a3b8" font-size="16">Average PnL / Position</text>
    <text x="424" y="340" fill="#22c55e" font-size="30" font-weight="700">+$467.92</text>

    <rect x="736" y="274" width="300" height="86" rx="12" fill="#1f2937" stroke="#334155"/>
    <text x="760" y="306" fill="#94a3b8" font-size="16">Max Drawdown</text>
    <text x="760" y="340" fill="#fb7185" font-size="30" font-weight="700">-2.51%</text>

    <rect x="64" y="390" width="972" height="78" rx="12" fill="#172033" stroke="#334155"/>
    <text x="88" y="422" fill="#94a3b8" font-size="16">System Contribution In Combined View</text>
    <text x="88" y="454" fill="#cbd5e1" font-size="22">Opening-range contribution: +$96,515.00 from 203 positions | Pullback contribution: +$17,658.14 from 41 positions</text>
  </g>

  <text x="64" y="504" fill="#64748b" font-family="Segoe UI, Arial, sans-serif" font-size="14">Historical private Python simulation. Public-safe aggregate only. Not financial advice. Future results can differ materially.</text>
</svg>
