<svg xmlns="http://www.w3.org/2000/svg" width="1100" height="520" viewBox="0 0 1100 520" role="img" aria-label="Private Python diagnostics snapshot">
  <rect width="1100" height="520" fill="#0f172a"/>
  <rect x="34" y="34" width="1032" height="452" rx="18" fill="#111827" stroke="#334155" stroke-width="2"/>
  <text x="64" y="84" fill="#e5e7eb" font-family="Segoe UI, Arial, sans-serif" font-size="34" font-weight="700">Python Backtest Diagnostics Snapshot</text>
  <text x="64" y="120" fill="#94a3b8" font-family="Segoe UI, Arial, sans-serif" font-size="18">MES private research summary • Sep 2024 - Jul 2026 • Public-safe aggregate view</text>
  <g font-family="Segoe UI, Arial, sans-serif">
    <rect x="64" y="160" width="300" height="86" rx="12" fill="#1f2937" stroke="#334155"/>
    <text x="88" y="192" fill="#94a3b8" font-size="16">Total Return</text>
    <text x="88" y="226" fill="#22c55e" font-size="30" font-weight="700">19.98%</text>
    <rect x="400" y="160" width="300" height="86" rx="12" fill="#1f2937" stroke="#334155"/>
    <text x="424" y="192" fill="#94a3b8" font-size="16">Profit Factor</text>
    <text x="424" y="226" fill="#facc15" font-size="30" font-weight="700">5.00</text>
    <rect x="736" y="160" width="300" height="86" rx="12" fill="#1f2937" stroke="#334155"/>
    <text x="760" y="192" fill="#94a3b8" font-size="16">Win Rate</text>
    <text x="760" y="226" fill="#38bdf8" font-size="30" font-weight="700">83.58%</text>
    <rect x="64" y="276" width="300" height="86" rx="12" fill="#1f2937" stroke="#334155"/>
    <text x="88" y="308" fill="#94a3b8" font-size="16">Max Drawdown</text>
    <text x="88" y="342" fill="#fb7185" font-size="30" font-weight="700">-2.25%</text>
    <rect x="400" y="276" width="300" height="86" rx="12" fill="#1f2937" stroke="#334155"/>
    <text x="424" y="308" fill="#94a3b8" font-size="16">Long / Short PnL</text>
    <text x="424" y="342" fill="#e5e7eb" font-size="28" font-weight="700">+$11.2k / +$8.8k</text>
    <rect x="736" y="276" width="300" height="86" rx="12" fill="#1f2937" stroke="#334155"/>
    <text x="760" y="308" fill="#94a3b8" font-size="16">Profitable Months</text>
    <text x="760" y="342" fill="#22c55e" font-size="30" font-weight="700">14 of 18</text>
    <rect x="64" y="392" width="972" height="54" rx="12" fill="#172033" stroke="#334155"/>
    <text x="88" y="425" fill="#cbd5e1" font-size="18">Exit-quality view: partial exits +$7.8k • runner exits +$7.7k • stop/trailing exits +$4.0k • daily max-loss -$2.5k</text>
  </g>
  <text x="64" y="472" fill="#64748b" font-family="Segoe UI, Arial, sans-serif" font-size="14">Historical private Python backtest diagnostics. Not financial advice. Results do not guarantee future performance.</text>
</svg>